<?xml version="1.0" encoding="utf-8"?>
<!-- Generator: Adobe Illustrator 25.2.0, SVG Export Plug-In . SVG Version: 6.00 Build 0)  -->
<svg version="1.1" id="Layer_1" xmlns="http://www.w3.org/2000/svg" xmlns:xlink="http://www.w3.org/1999/xlink" x="0px" y="0px"
	 viewBox="0 0 1000 1000" style="enable-background:new 0 0 1000 1000;" xml:space="preserve">
<style type="text/css">
	.st0{opacity:0.5;fill:#FFFFFF;}
	.st1{fill:#171717;}
</style>
<rect class="st0" width="1000" height="1000"/>
<g>
	<path class="st1" d="M637.8,422h-31.2v-18.1c-11.8,13.6-21.9,20.4-32.8,20.4c-9.6,0-16.3-4.5-19.6-12.7c-2-5-3.5-12.7-3.5-24.2
		V255.9h31.2v123.3c0,7,0,9.9,0,11.5c0.7,4.6,2.7,6.3,6.7,6.3c6,0,11.4-5.2,18-14.5V255.9h31.2V422"/>
	<g>
		<path class="st1" d="M527.6,310.2c0-17.7-3.6-31.1-9.9-39.5c-8.3-11.4-21.4-16-34.5-16c-14.9,0-26.2,4.7-34.5,16
			c-6.4,8.4-9.8,21.9-9.8,39.6l0,59.1c0,17.6,3.1,29.8,9.5,38.2c8.3,11.3,21.8,17.3,34.9,17.3c13.2,0,26.9-6,35.2-17.3
			c6.3-8.3,9.2-20.5,9.2-38.2V310.2 M496.4,372.7c1.6,16.4-3.5,24.6-13.2,24.6c-9.7,0-14.8-8.2-13.2-24.6v-65.8
			c-1.6-16.4,3.5-24.2,13.2-24.2c9.7,0,14.8,7.7,13.2,24.2L496.4,372.7z"/>
		<path class="st1" d="M404.3,331.5V422h-32.9v-90.4c0,0-34.1-110.9-41.1-131.5h34.5l23.1,86.6l23-86.6h34.5L404.3,331.5"/>
	</g>
	<g>
		<path class="st1" d="M550.5,594.8c-4.9,0-10.5,2.6-15.5,7.5l0,99.7c5,5,10.6,7.5,15.5,7.5c8.6,0,12.5-6.3,12.5-22.7V616
			C562.9,599.6,559.1,594.8,550.5,594.8z"/>
		<path class="st1" d="M673.1,614.5c0-15.2-3.9-19.8-13.8-19.8c-9.9,0-14.2,4.2-14.2,19.6v18.2l28,0V614.5z"/>
		<path class="st1" d="M740.6,530.4c0,0-4.8-33.7-19.5-48.5c-18.7-19.5-39.6-19.6-49.2-20.7c-68.7-4.9-171.8-4.9-171.8-4.9h-0.2
			c0,0-103.1,0-171.8,4.9c-9.6,1.1-30.5,1.2-49.2,20.7c-14.7,14.8-19.5,48.5-19.5,48.5s-4.9,39.6-4.9,79.1v37.1
			c0,39.6,4.9,79.1,4.9,79.1s4.8,33.7,19.5,48.5c18.7,19.5,43.2,18.9,54.1,20.9C372.3,798.8,500,800,500,800s103.2-0.2,171.9-5.1
			c9.6-1.1,30.5-1.2,49.2-20.7c14.7-14.8,19.5-48.5,19.5-48.5s4.9-39.6,4.9-79.1v-37.1C745.5,569.9,740.6,530.4,740.6,530.4z
			 M362.3,734.4h-32.9V545.3h-34.5v-31.2l103.6,0v31.2h-36.2V734.4z M480.7,734.4h-31.2v-18.1c-11.8,13.6-21.9,20.4-32.8,20.4
			c-9.6,0-16.3-4.5-19.6-12.7c-2-5-3.5-12.7-3.5-24.2V570h31.2v121.7c0,7,0,9.9,0,11.5c0.7,4.6,2.7,6.3,6.7,6.3
			c6,0,11.4-5.2,18-14.5V570h31.2V734.4z M594.2,685.1c0,15.2-1.3,25.9-3.3,32.9c-4,12.2-12.6,18.6-24.5,18.6
			c-10.6,0-21.4-6.4-31.4-18.7l0,16.6h-29.6V514.1H535l0,71.8c9.6-11.8,20.5-18.6,31.5-18.6c11.9,0,19.8,6.8,23.8,19.2
			c2,6.6,4,17.2,4,32.8V685.1z M659.6,709.5c7.3,0,11.6-4,13.3-11.9c0.3-1.6,0.2-8.7,0.2-20.7h31.2v4.7c0,9.6-0.8,16.4-1.1,19.4
			c-1,6.6-3.3,12.6-7,17.8c-8.2,11.9-20.5,17.8-36,17.8c-15.6,0-27.4-5.6-36-16.8c-6.3-8.2-10.4-20.4-10.4-37.9v-57.6
			c0-17.6,3.7-31.1,10-39.4c8.6-11.2,20.5-17.2,35.7-17.2c14.9,0,26.8,6,35.1,17.2c6.2,8.3,9.7,21.2,9.7,38.7l0,33.6h-59.3v29.5
			C645.1,701.8,649.4,709.5,659.6,709.5z"/>
	</g>
</g>
</svg>
