<?xml version="1.0" encoding="utf-8"?>
<!-- Generator: Adobe Illustrator 25.2.0, SVG Export Plug-In . SVG Version: 6.00 Build 0)  -->
<svg version="1.1" id="Layer_1" xmlns="http://www.w3.org/2000/svg" xmlns:xlink="http://www.w3.org/1999/xlink" x="0px" y="0px"
	 viewBox="0 0 1000 1000" style="enable-background:new 0 0 1000 1000;" xml:space="preserve">
<style type="text/css">
	.st0{opacity:0.5;fill:#FFFFFF;}
	.st1{fill:#171717;}
</style>
<rect class="st0" width="1000" height="1000"/>
<g>
	<g id="Twitter_1_">
		<path class="st1" d="M800,314.5c-16.4,24.5-38.2,46.4-62.7,62.7c0,5.5,0,10.9,0,16.4c0,87.3-32.7,171.8-90,237.3
			c-65.5,76.4-160.9,117.3-259.1,114.5c-68.2,0-133.6-19.1-188.2-54.5c10.9,0,19.1,0,30,0c54.5,0,109.1-19.1,152.7-54.5
			c-27.3,0-51.8-8.2-70.9-24.5c-21.8-16.4-35.5-35.5-43.6-60c5.5,0,13.6,0,21.8,2.7c10.9,0,21.8,0,32.7-2.7
			c-57.3-13.6-95.5-65.5-95.5-122.7v-2.7c16.4,8.2,35.5,13.6,54.5,16.4c-35.5-21.8-54.5-60-54.5-103.6c0-21.8,5.5-43.6,16.4-62.7
			c60,79.1,152.7,125.5,253.6,128.2c-2.7-8.2-2.7-19.1-2.7-27.3c0-68.2,54.5-122.7,122.7-122.7l0,0c35.5,0,68.2,13.6,90,38.2
			c27.3-5.5,54.5-16.4,79.1-30c-8.2,30-27.3,54.5-54.5,68.2C753.6,330.8,778.2,322.7,800,314.5z"/>
	</g>
</g>
</svg>
