<?xml version="1.0" encoding="utf-8"?>
<!-- Generator: Adobe Illustrator 25.4.1, SVG Export Plug-In . SVG Version: 6.00 Build 0)  -->
<svg version="1.1" id="Layer_1" xmlns="http://www.w3.org/2000/svg" xmlns:xlink="http://www.w3.org/1999/xlink" x="0px" y="0px"
	 viewBox="0 0 1000 1000" style="enable-background:new 0 0 1000 1000;" xml:space="preserve">
<style type="text/css">
	.st0{opacity:0.5;fill:#FFFFFF;}
	.st1{fill:#171717;}
</style>
<g>
	<rect y="0" class="st0" width="1000" height="1000"/>
	<g>
		<polygon class="st1" points="332,585 253,508 242,508 149,508 130,508 142,519 142,519 391,766 423,735 423,735 453,704 		"/>
		<polygon class="st1" points="855,505 761,505 751,505 614,639 475,505 465,505 371,505 353,505 374,526 374,526 614,764 852,526 
			852,526 873,505 		"/>
		<polygon class="st1" points="659,505 564,505 612,552 		"/>
		<path class="st1" d="M666,431c0-1,0-3,0-4c-4-3-8-7-13-10c-25,0-45,0-71,0c-4,0-11,0-14-3c-3-2-4-7-4-11c0-17,0-32,0-49
			c-7-8-14-16-21-24c-4,0-9,0-13,0c0,29,0,58,0,87c4,5,8,9,12,14C583,431,625,431,666,431z"/>
		<path class="st1" d="M364,403c5-5,6-8,11-11c4-3,10-3,16-3c9,0,18,0,28,0c13,14,26,28,39,42c13,0,25,0,38,0c-31-34-61-68-92-102
			c-2,0-5,0-7,0c-9,10-18,20-27,30c4,0,8,0,12,0c2-2,5-5,7-7c8,9,15,17,23,26c-19,0-39,0-58,0c-15,17-31,34-46,51c11,0,23,0,34,0
			C348,421,356,412,364,403z"/>
		<path class="st1" d="M157,388c26,0,52,0,78,0c0,14,0,28,0,43c11,0,22,0,33,0c0-23,0-42,0-65c0-5-6-13-12-16c-4-2-10-4-21-4
			c0,10,0,21,0,31c-28,0-56,0-84,0c-2-2-3-3-5-5c0-14,0-28,0-42c-10,0-20,0-29,0c0,35,0,71,0,106c13,0,27,0,40,0
			C157,420,157,404,157,388z"/>
		<path class="st1" d="M759,381C759,382,759,382,759,381c1,1,1,1,2,2l1,1c0,0,1,0,1,1c0,0,1,0,1,1c0,0,1,0,1,1c1,0,1,0,2,0s1,0,2,0
			s1,0,2,0c1,0,1,0,2,0c1,0,1,0,2,0s1,0,2,0c1,0,1,0,2,0s1,0,2,0s1,0,2,0c1,0,1,0,2,0c1,0,1,0,2,0s1,0,2,0c0,0,1,0,1-1c0,0,1,0,1-1
			c0,0,1,0,1-1l1-1l1-1l1-1c0,0,0-1,1-1v-1v-1c0-1,0-1,0-2v-1v-1c0,0,0-1-1-1l-1-1l-1-1l-1-1c0,0-1,0-1-1c0,0-1,0-1-1c0,0-1,0-1-1
			c-1,0-1,0-2,0s-1,0-2,0c-1,0-1,0-2,0c-1,0-1,0-2,0s-1,0-2,0s-1,0-2,0c-1,0-1,0-2,0s-1,0-2,0c-1,0-1,0-2,0c-1,0-1,0-2,0s-1,0-2,0
			s-1,0-2,0c0,0-1,0-1,1c0,0-1,0-1,1c0,0-1,0-1,1l-1,1l-1,1l-1,1c0,0,0,1-1,1v1v1c0,1,0,1,0,2v1C758,380,758,380,759,381
			C758,381,758,381,759,381z"/>
		<path class="st1" d="M902,372c-1,0-2,0-4-1c-1,0-1,0-2-1c-1,0-1-1-2-1c-1-1-1-3-2-4c-1-2-2-4-3-5c-1-2-3-3-4-5c-2-2-3-3-5-5
			s-4-3-6-5c-2-1-4-3-7-4c-3-1-5-3-8-4c-3-1-6-2-8-4c-3-1-6-2-9-3c-3-1-6-2-10-3c-3-1-7-2-10-2c-4-1-7-1-11-2c-4,0-7-1-11-1
			s-7-1-11-1s-7,0-11,0c-4,0-7,0-11,0c-4,0-7,1-11,1s-7,1-11,1c-4,1-7,1-11,2c-1,0-2,1-3,1c-2,2-4,4-7,6c-2,1-5,2-7,2c-3,1-6,2-9,3
			c-3,1-5,2-8,3c-2,1-5,2-7,4c-2,1-4,3-6,4c-2,1-4,3-5,4c-2,2-3,3-5,5c-1,2-2,3-4,5c0,1-1,1-1,2l10,4c1-1,2-2,2-3c1-1,2-2,3-3
			c1-1,3-2,4-3c2-1,3-2,5-3c2-1,4-2,6-3c2-1,4-2,7-3c2-1,5-2,7-3c3-1,5-2,8-2c3-1,6-1,8-2c3-1,6-1,9-2c3,0,6-1,9-1c3,0,6,0,9-1
			c3,0,6,0,9,0c3,0,6,0,9,0c3,0,6,0,9,1c3,0,6,1,9,1c3,1,6,1,9,2c3,1,6,1,8,2c3,1,5,2,8,2c2,1,5,2,7,3c2,1,4,2,7,3c2,1,4,2,6,3
			c2,1,3,2,5,3c1,1,3,2,4,3c1,1,2,2,3,3c1,1,2,2,2,3c1,1,1,2,2,3c0,1,1,2,1,3c0,1,0,2,0,3c0,1,0,2,0,3s-1,2-1,3c-1,1-1,2-2,3
			c-1,1-2,2-2,3c-1,1-2,2-3,3c-1,1-3,2-4,3c-2,1-3,2-5,3c-2,1-4,2-6,3c-2,1-4,2-7,3c-2,1-5,2-7,3c-3,1-5,2-8,2c-3,1-6,1-8,2
			c-3,1-6,1-9,2c-3,0-6,1-9,1c-3,0-6,0-9,1c-3,0-6,0-9,0c-3,0-6,0-9,0c-1,0-1,0-2,0c-2,0-5,0-7-1c-3,0-6-1-9-1c-3-1-6-1-9-2
			c-3-1-6-1-8-2c-2-1-3-1-5-2l-5,9c0,0,1,1,2,1c3,1,6,2,9,2c3,1,6,1,10,2c3,1,7,1,10,2c3,0,7,1,10,1c0,0,0,0,1,0c2,2,4,3,7,5
			c1,0,2,0,3,0c4,0,7,0,11,0s7,0,11,0s7-1,11-1c4,0,7-1,11-1c4-1,7-1,11-2c3-1,7-2,10-2c3-1,6-2,10-3c3-1,6-2,9-3c3-1,6-2,8-4
			c3-1,5-3,8-4c2-1,4-3,7-4c2-2,4-3,6-5c2-2,3-3,5-5c1-2,3-3,4-5c1-2,2-4,3-5c1-1,1-3,2-4c1,0,1-1,2-1c1,0,1,0,2-1c1,0,2,0,4-1
			c5,0,10,0,15,0c0-2,0-5,0-7C912,372,907,372,902,372z"/>
	</g>
</g>
</svg>
