<?xml version="1.0" encoding="utf-8"?>
<!-- Generator: Adobe Illustrator 25.2.0, SVG Export Plug-In . SVG Version: 6.00 Build 0)  -->
<svg version="1.1" id="Layer_1" xmlns="http://www.w3.org/2000/svg" xmlns:xlink="http://www.w3.org/1999/xlink" x="0px" y="0px"
	 viewBox="0 0 1000 1000" style="enable-background:new 0 0 1000 1000;" xml:space="preserve">
<style type="text/css">
	.st0{opacity:0.5;fill:#FFFFFF;}
	.st1{fill:#171717;}
</style>
<rect class="st0" width="1000" height="1000"/>
<g>
	<g>
		<path class="st1" d="M500,200c-81.5,0-91.7,0.3-123.7,1.8c-31.9,1.5-53.7,6.5-72.8,13.9c-19.7,7.7-36.5,17.9-53.1,34.6
			c-16.7,16.7-26.9,33.4-34.6,53.1c-7.4,19.1-12.5,40.9-13.9,72.8c-1.5,32-1.8,42.2-1.8,123.7c0,81.5,0.3,91.7,1.8,123.7
			c1.5,31.9,6.5,53.7,13.9,72.8c7.7,19.7,17.9,36.5,34.6,53.1c16.7,16.7,33.4,26.9,53.1,34.6c19.1,7.4,40.9,12.5,72.8,13.9
			c32,1.5,42.2,1.8,123.7,1.8c81.5,0,91.7-0.3,123.7-1.8c31.9-1.5,53.7-6.5,72.8-13.9c19.7-7.7,36.5-17.9,53.1-34.6
			c16.7-16.7,26.9-33.4,34.6-53.1c7.4-19.1,12.5-40.9,13.9-72.8c1.5-32,1.8-42.2,1.8-123.7c0-81.5-0.3-91.7-1.8-123.7
			c-1.5-31.9-6.5-53.7-13.9-72.8c-7.7-19.7-17.9-36.5-34.6-53.1c-16.7-16.7-33.4-26.9-53.1-34.6c-19.1-7.4-40.9-12.5-72.8-13.9
			C591.7,200.3,581.5,200,500,200L500,200L500,200z M500,254.1c80.1,0,89.6,0.3,121.2,1.7c29.2,1.3,45.1,6.2,55.7,10.3
			c14,5.4,24,11.9,34.5,22.4c10.5,10.5,17,20.5,22.4,34.5c4.1,10.6,9,26.5,10.3,55.7c1.4,31.6,1.7,41.1,1.7,121.2
			c0,80.1-0.3,89.6-1.7,121.2c-1.3,29.2-6.2,45.1-10.3,55.7c-5.4,14-11.9,24-22.4,34.5c-10.5,10.5-20.5,17-34.5,22.4
			c-10.6,4.1-26.5,9-55.7,10.3c-31.6,1.4-41.1,1.7-121.2,1.7c-80.1,0-89.6-0.3-121.2-1.7c-29.2-1.3-45.1-6.2-55.7-10.3
			c-14-5.4-24-11.9-34.5-22.4c-10.5-10.5-17-20.5-22.4-34.5c-4.1-10.6-9-26.5-10.3-55.7c-1.4-31.6-1.7-41.1-1.7-121.2
			c0-80.1,0.3-89.6,1.7-121.2c1.3-29.2,6.2-45.1,10.3-55.7c5.4-14,11.9-24,22.4-34.5c10.5-10.5,20.5-17,34.5-22.4
			c10.6-4.1,26.5-9,55.7-10.3C410.4,254.4,419.9,254.1,500,254.1"/>
		<path class="st1" d="M500,600c-55.2,0-100-44.8-100-100c0-55.2,44.8-100,100-100c55.2,0,100,44.8,100,100
			C600,555.2,555.2,600,500,600L500,600z M500,345.9c-85.1,0-154.1,69-154.1,154.1c0,85.1,69,154.1,154.1,154.1
			c85.1,0,154.1-69,154.1-154.1C654.1,414.9,585.1,345.9,500,345.9L500,345.9z"/>
		<path class="st1" d="M696.1,339.9c0,19.9-16.1,36-36,36c-19.9,0-36-16.1-36-36c0-19.9,16.1-36,36-36
			C680,303.9,696.1,320,696.1,339.9L696.1,339.9z"/>
	</g>
</g>
</svg>
